<?xml version="1.0" encoding="utf-8"?>
<!-- Generator: Adobe Illustrator 27.1.0, SVG Export Plug-In . SVG Version: 6.00 Build 0)  -->
<svg version="1.1" id="Layer_1" xmlns="http://www.w3.org/2000/svg" xmlns:xlink="http://www.w3.org/1999/xlink" x="0px" y="0px"
	 viewBox="0 0 336 48" style="enable-background:new 0 0 336 48;" xml:space="preserve">
<style type="text/css">
	.st0{fill:#E0DDCE;}
</style>
<path class="st0" d="M336,35.7V12.3c-6.8,0-12.3-5.5-12.3-12.3H12.3c0,6.8-5.5,12.3-12.3,12.3v23.4c6.8,0,12.3,5.5,12.3,12.3h311.4
	C323.7,41.2,329.2,35.7,336,35.7z"/>
<g>
	<path d="M321,3c1.2,6,6,10.8,12,12v18c-6,1.2-10.8,6-12,12H15c-1.2-6-6-10.8-12-12V15c6-1.2,10.8-6,12-12H321 M323.7,0H12.3
		c0,6.8-5.5,12.3-12.3,12.3v23.4c6.8,0,12.3,5.5,12.3,12.3h311.4c0-6.8,5.5-12.3,12.3-12.3V12.3C329.2,12.3,323.7,6.8,323.7,0
		L323.7,0z"/>
</g>
</svg>
