<?xml version="1.0" encoding="utf-8"?>
<!-- Generator: Adobe Illustrator 27.1.0, SVG Export Plug-In . SVG Version: 6.00 Build 0)  -->
<svg version="1.1" id="Layer_1" xmlns="http://www.w3.org/2000/svg" xmlns:xlink="http://www.w3.org/1999/xlink" x="0px" y="0px"
	 viewBox="0 0 19 19" style="enable-background:new 0 0 19 19;" xml:space="preserve">
<style type="text/css">
	.st0{fill:#212121;}
</style>
<path class="st0" d="M18,4h-3.6c-0.5,0-0.9-0.4-0.9-0.9V1c0-0.5-0.5-1-1-1h-6c-0.5,0-1,0.5-1,1v2.1C5.5,3.6,5.1,4,4.6,4H1
	C0.5,4,0,4.5,0,5s0.5,1,1,1h1c0.6,0,1,0.5,1,1V18c0,0.6,0.5,1,1,1H15c0.6,0,1-0.5,1-1V7c0-0.6,0.5-1,1-1h1c0.5,0,1-0.5,1-1
	S18.5,4,18,4z M7.5,2.9C7.5,2.4,7.9,2,8.4,2h2.9c0.1,0,0.2,0.1,0.2,0.2v0.9c0,0.5-0.4,0.9-0.9,0.9H7.7C7.6,4,7.5,3.9,7.5,3.8V2.9z
	 M14,14.9c0,0.9-0.6,1.7-1.5,2V8.5c0-0.5-0.5-1-1-1s-1,0.5-1,1V17h-2V8.5c0-0.5-0.5-1-1-1s-1,0.5-1,1V17H6.1C5.5,17,5,16.5,5,15.9
	V8.1C5,6.9,5.9,6,7.1,6h5.8C13.5,6,14,6.5,14,7.1V14.9z"/>
</svg>
