<?xml version="1.0" encoding="utf-8"?>
<!-- Generator: Adobe Illustrator 27.1.0, SVG Export Plug-In . SVG Version: 6.00 Build 0)  -->
<svg version="1.1" id="Layer_1" xmlns="http://www.w3.org/2000/svg" xmlns:xlink="http://www.w3.org/1999/xlink" x="0px" y="0px"
	 viewBox="0 0 941 381" style="enable-background:new 0 0 941 381;" xml:space="preserve">
<style type="text/css">
	.st0{fill:#5969B1;}
</style>
<g>
	<path class="st0" d="M924.7,3c1.2,6.7,6.5,12,13.3,13.3v348.5c-6.7,1.2-12,6.5-13.3,13.3H16.3C15,371.3,9.7,366,3,364.7V16.3
		C9.7,15,15,9.7,16.3,3H924.7 M927.5,0H13.5c0,7.5-6.1,13.5-13.5,13.5v353.9c7.5,0,13.5,6.1,13.5,13.5h913.9
		c0-7.5,6.1-13.5,13.5-13.5V13.5C933.5,13.5,927.5,7.5,927.5,0L927.5,0z"/>
</g>
</svg>
